<svg width="235" height="62" viewBox="0 0 235 62" fill="none" xmlns="http://www.w3.org/2000/svg">
<path d="M32.3975 6.45312V42H23.8525L11.2793 19.8809V42H2.70996V6.45312H11.2793L23.8525 28.5723V6.45312H32.3975ZM50.2197 42.4883C48.0713 42.4883 46.1507 42.1546 44.458 41.4873C42.7653 40.8037 41.333 39.8678 40.1611 38.6797C39.0055 37.4915 38.1185 36.1243 37.5 34.5781C36.8978 33.0319 36.5967 31.3962 36.5967 29.6709V28.7432C36.5967 26.8063 36.8652 25.016 37.4023 23.3721C37.9395 21.7119 38.737 20.2633 39.7949 19.0264C40.8529 17.7894 42.1794 16.8291 43.7744 16.1455C45.3695 15.4456 47.2249 15.0957 49.3408 15.0957C51.2126 15.0957 52.889 15.3968 54.3701 15.999C55.8512 16.6012 57.1045 17.4639 58.1299 18.5869C59.1715 19.71 59.9609 21.069 60.498 22.6641C61.0514 24.2591 61.3281 26.0495 61.3281 28.0352V31.3799H39.7461V26.2285H53.2959V25.5938C53.3122 24.7148 53.1576 23.9661 52.832 23.3477C52.5228 22.7292 52.0671 22.2572 51.4648 21.9316C50.8626 21.6061 50.1302 21.4434 49.2676 21.4434C48.3724 21.4434 47.6318 21.6387 47.0459 22.0293C46.4762 22.4199 46.0286 22.957 45.7031 23.6406C45.3939 24.3079 45.1742 25.0811 45.0439 25.96C44.9137 26.8389 44.8486 27.7666 44.8486 28.7432V29.6709C44.8486 30.6475 44.9788 31.5345 45.2393 32.332C45.516 33.1296 45.9066 33.8132 46.4111 34.3828C46.932 34.9362 47.5505 35.3675 48.2666 35.6768C48.999 35.986 49.8291 36.1406 50.7568 36.1406C51.8799 36.1406 52.9867 35.929 54.0771 35.5059C55.1676 35.0827 56.1035 34.3828 56.8848 33.4062L60.6201 37.8496C60.083 38.6146 59.318 39.3551 58.3252 40.0713C57.3486 40.7874 56.1768 41.3734 54.8096 41.8291C53.4424 42.2686 51.9124 42.4883 50.2197 42.4883ZM72.7051 34.1387L77.5879 15.584H82.7393L80.9082 24.8857L76.0742 42H71.9482L72.7051 34.1387ZM70.7764 15.584L73.8037 33.9922L74.1455 42H69.1406L62.8906 15.584H70.7764ZM87.085 33.6016L90.1367 15.584H98.0225L91.8213 42H86.8164L87.085 33.6016ZM83.3252 15.584L88.2568 34.0898L89.0137 42H84.8389L80.1025 24.9346L78.3447 15.584H83.3252ZM114.844 34.5781C114.844 34.1224 114.689 33.7318 114.38 33.4062C114.087 33.0645 113.566 32.7552 112.817 32.4785C112.069 32.1855 111.019 31.8926 109.668 31.5996C108.382 31.3229 107.17 30.9567 106.03 30.501C104.907 30.0452 103.923 29.4919 103.076 28.8408C102.23 28.1898 101.562 27.4167 101.074 26.5215C100.602 25.6263 100.366 24.6009 100.366 23.4453C100.366 22.3223 100.602 21.2643 101.074 20.2715C101.562 19.2624 102.271 18.3753 103.198 17.6104C104.142 16.8291 105.29 16.2188 106.641 15.7793C107.992 15.3236 109.53 15.0957 111.255 15.0957C113.631 15.0957 115.682 15.4619 117.407 16.1943C119.132 16.9105 120.459 17.9196 121.387 19.2217C122.331 20.5075 122.803 21.9967 122.803 23.6895H114.575C114.575 23.0221 114.461 22.4525 114.233 21.9805C114.022 21.5085 113.672 21.1504 113.184 20.9062C112.695 20.6458 112.044 20.5156 111.23 20.5156C110.661 20.5156 110.14 20.6214 109.668 20.833C109.212 21.0446 108.846 21.3376 108.569 21.7119C108.293 22.0863 108.154 22.5257 108.154 23.0303C108.154 23.3883 108.236 23.7139 108.398 24.0068C108.577 24.2835 108.846 24.5439 109.204 24.7881C109.562 25.016 110.018 25.2275 110.571 25.4229C111.125 25.6019 111.792 25.7646 112.573 25.9111C114.347 26.2367 116.007 26.7005 117.554 27.3027C119.1 27.9049 120.353 28.7594 121.313 29.8662C122.29 30.973 122.778 32.4622 122.778 34.334C122.778 35.5059 122.51 36.5882 121.973 37.5811C121.436 38.5576 120.662 39.4202 119.653 40.1689C118.644 40.9014 117.432 41.471 116.016 41.8779C114.6 42.2848 113.005 42.4883 111.23 42.4883C108.708 42.4883 106.576 42.0407 104.834 41.1455C103.092 40.234 101.774 39.0947 100.879 37.7275C100 36.3441 99.5605 34.9443 99.5605 33.5283H107.227C107.259 34.3421 107.454 35.0094 107.812 35.5303C108.187 36.0511 108.683 36.4336 109.302 36.6777C109.92 36.9219 110.636 37.0439 111.45 37.0439C112.199 37.0439 112.817 36.9382 113.306 36.7266C113.81 36.515 114.193 36.2301 114.453 35.8721C114.714 35.4977 114.844 35.0664 114.844 34.5781Z" fill="black"/>
<path d="M135.229 38.7773L142.31 6.45312H146.533L148.828 9.21191L141.284 42H136.621L135.229 38.7773ZM133.35 6.45312L139.331 39.0215L137.793 42H132.397L124.854 6.45312H133.35ZM152.71 38.8506L158.643 6.45312H167.114L159.57 42H154.199L152.71 38.8506ZM149.585 6.45312L156.836 38.9727L155.371 42H150.708L142.993 9.16309L145.386 6.45312H149.585ZM178.784 15.584V42H170.532V15.584H178.784ZM170.044 8.77246C170.044 7.60059 170.467 6.6403 171.313 5.8916C172.16 5.1429 173.258 4.76855 174.609 4.76855C175.96 4.76855 177.059 5.1429 177.905 5.8916C178.752 6.6403 179.175 7.60059 179.175 8.77246C179.175 9.94434 178.752 10.9046 177.905 11.6533C177.059 12.402 175.96 12.7764 174.609 12.7764C173.258 12.7764 172.16 12.402 171.313 11.6533C170.467 10.9046 170.044 9.94434 170.044 8.77246ZM197.705 34.5781C197.705 34.1224 197.55 33.7318 197.241 33.4062C196.948 33.0645 196.427 32.7552 195.679 32.4785C194.93 32.1855 193.88 31.8926 192.529 31.5996C191.243 31.3229 190.031 30.9567 188.892 30.501C187.769 30.0452 186.784 29.4919 185.938 28.8408C185.091 28.1898 184.424 27.4167 183.936 26.5215C183.464 25.6263 183.228 24.6009 183.228 23.4453C183.228 22.3223 183.464 21.2643 183.936 20.2715C184.424 19.2624 185.132 18.3753 186.06 17.6104C187.004 16.8291 188.151 16.2188 189.502 15.7793C190.853 15.3236 192.391 15.0957 194.116 15.0957C196.493 15.0957 198.543 15.4619 200.269 16.1943C201.994 16.9105 203.32 17.9196 204.248 19.2217C205.192 20.5075 205.664 21.9967 205.664 23.6895H197.437C197.437 23.0221 197.323 22.4525 197.095 21.9805C196.883 21.5085 196.533 21.1504 196.045 20.9062C195.557 20.6458 194.906 20.5156 194.092 20.5156C193.522 20.5156 193.001 20.6214 192.529 20.833C192.074 21.0446 191.707 21.3376 191.431 21.7119C191.154 22.0863 191.016 22.5257 191.016 23.0303C191.016 23.3883 191.097 23.7139 191.26 24.0068C191.439 24.2835 191.707 24.5439 192.065 24.7881C192.424 25.016 192.879 25.2275 193.433 25.4229C193.986 25.6019 194.653 25.7646 195.435 25.9111C197.209 26.2367 198.869 26.7005 200.415 27.3027C201.961 27.9049 203.215 28.7594 204.175 29.8662C205.151 30.973 205.64 32.4622 205.64 34.334C205.64 35.5059 205.371 36.5882 204.834 37.5811C204.297 38.5576 203.524 39.4202 202.515 40.1689C201.506 40.9014 200.293 41.471 198.877 41.8779C197.461 42.2848 195.866 42.4883 194.092 42.4883C191.569 42.4883 189.437 42.0407 187.695 41.1455C185.954 40.234 184.635 39.0947 183.74 37.7275C182.861 36.3441 182.422 34.9443 182.422 33.5283H190.088C190.12 34.3421 190.316 35.0094 190.674 35.5303C191.048 36.0511 191.545 36.4336 192.163 36.6777C192.782 36.9219 193.498 37.0439 194.312 37.0439C195.06 37.0439 195.679 36.9382 196.167 36.7266C196.672 36.515 197.054 36.2301 197.314 35.8721C197.575 35.4977 197.705 35.0664 197.705 34.5781ZM222.29 42.4883C220.142 42.4883 218.221 42.1546 216.528 41.4873C214.836 40.8037 213.403 39.8678 212.231 38.6797C211.076 37.4915 210.189 36.1243 209.57 34.5781C208.968 33.0319 208.667 31.3962 208.667 29.6709V28.7432C208.667 26.8063 208.936 25.016 209.473 23.3721C210.01 21.7119 210.807 20.2633 211.865 19.0264C212.923 17.7894 214.25 16.8291 215.845 16.1455C217.44 15.4456 219.295 15.0957 221.411 15.0957C223.283 15.0957 224.959 15.3968 226.44 15.999C227.922 16.6012 229.175 17.4639 230.2 18.5869C231.242 19.71 232.031 21.069 232.568 22.6641C233.122 24.2591 233.398 26.0495 233.398 28.0352V31.3799H211.816V26.2285H225.366V25.5938C225.382 24.7148 225.228 23.9661 224.902 23.3477C224.593 22.7292 224.137 22.2572 223.535 21.9316C222.933 21.6061 222.201 21.4434 221.338 21.4434C220.443 21.4434 219.702 21.6387 219.116 22.0293C218.547 22.4199 218.099 22.957 217.773 23.6406C217.464 24.3079 217.244 25.0811 217.114 25.96C216.984 26.8389 216.919 27.7666 216.919 28.7432V29.6709C216.919 30.6475 217.049 31.5345 217.31 32.332C217.586 33.1296 217.977 33.8132 218.481 34.3828C219.002 34.9362 219.621 35.3675 220.337 35.6768C221.069 35.986 221.899 36.1406 222.827 36.1406C223.95 36.1406 225.057 35.929 226.147 35.5059C227.238 35.0827 228.174 34.3828 228.955 33.4062L232.69 37.8496C232.153 38.6146 231.388 39.3551 230.396 40.0713C229.419 40.7874 228.247 41.3734 226.88 41.8291C225.513 42.2686 223.983 42.4883 222.29 42.4883Z" fill="#DB1313"/>
<path d="M1.96191 50.0469L4.27246 54.7979L6.58301 50.0469H8.4834L5.13379 56.3359V60H3.4043V56.3359L0.0546875 50.0469H1.96191ZM18.7018 54.75V55.2969C18.7018 56.0488 18.6038 56.7233 18.4078 57.3203C18.2118 57.9173 17.9316 58.4255 17.567 58.8447C17.207 59.264 16.774 59.5853 16.2682 59.8086C15.7623 60.0273 15.2018 60.1367 14.5865 60.1367C13.9758 60.1367 13.4176 60.0273 12.9117 59.8086C12.4104 59.5853 11.9752 59.264 11.6061 58.8447C11.2369 58.4255 10.9498 57.9173 10.7447 57.3203C10.5442 56.7233 10.4439 56.0488 10.4439 55.2969V54.75C10.4439 53.998 10.5442 53.3258 10.7447 52.7334C10.9452 52.1364 11.2278 51.6283 11.5924 51.209C11.9615 50.7852 12.3967 50.4639 12.898 50.2451C13.4039 50.0218 13.9622 49.9102 14.5729 49.9102C15.1881 49.9102 15.7486 50.0218 16.2545 50.2451C16.7604 50.4639 17.1956 50.7852 17.5602 51.209C17.9247 51.6283 18.205 52.1364 18.401 52.7334C18.6015 53.3258 18.7018 53.998 18.7018 54.75ZM16.9859 55.2969V54.7363C16.9859 54.1803 16.9312 53.6904 16.8219 53.2666C16.7171 52.8382 16.5598 52.4805 16.3502 52.1934C16.1451 51.9017 15.8922 51.6829 15.5914 51.5371C15.2906 51.3867 14.9511 51.3115 14.5729 51.3115C14.1946 51.3115 13.8574 51.3867 13.5611 51.5371C13.2649 51.6829 13.012 51.9017 12.8023 52.1934C12.5973 52.4805 12.44 52.8382 12.3307 53.2666C12.2213 53.6904 12.1666 54.1803 12.1666 54.7363V55.2969C12.1666 55.8529 12.2213 56.3451 12.3307 56.7734C12.44 57.2018 12.5995 57.5641 12.8092 57.8604C13.0234 58.152 13.2786 58.373 13.5748 58.5234C13.871 58.6693 14.2083 58.7422 14.5865 58.7422C14.9693 58.7422 15.3089 58.6693 15.6051 58.5234C15.9013 58.373 16.152 58.152 16.357 57.8604C16.5621 57.5641 16.7171 57.2018 16.8219 56.7734C16.9312 56.3451 16.9859 55.8529 16.9859 55.2969ZM27.4025 50.0469H29.1115V56.6982C29.1115 57.4548 28.9475 58.0882 28.6193 58.5986C28.2912 59.109 27.8446 59.4941 27.2795 59.7539C26.7189 60.0091 26.0923 60.1367 25.3996 60.1367C24.6841 60.1367 24.0461 60.0091 23.4855 59.7539C22.925 59.4941 22.4829 59.109 22.1594 58.5986C21.8404 58.0882 21.6809 57.4548 21.6809 56.6982V50.0469H23.3898V56.6982C23.3898 57.1768 23.4719 57.571 23.6359 57.8809C23.8 58.1862 24.0324 58.4118 24.3332 58.5576C24.634 58.7035 24.9895 58.7764 25.3996 58.7764C25.8098 58.7764 26.163 58.7035 26.4592 58.5576C26.76 58.4118 26.9924 58.1862 27.1564 57.8809C27.3205 57.571 27.4025 57.1768 27.4025 56.6982V50.0469ZM32.3777 50.0469H35.8982C36.6548 50.0469 37.2996 50.1608 37.8328 50.3887C38.366 50.6165 38.7739 50.9538 39.0564 51.4004C39.3436 51.8424 39.4871 52.3893 39.4871 53.041C39.4871 53.5378 39.396 53.9753 39.2137 54.3535C39.0314 54.7318 38.7739 55.0508 38.4412 55.3105C38.1085 55.5658 37.712 55.764 37.2518 55.9053L36.7322 56.1582H33.5672L33.5535 54.7979H35.9256C36.3357 54.7979 36.6775 54.7249 36.951 54.5791C37.2244 54.4333 37.4295 54.235 37.5662 53.9844C37.7075 53.7292 37.7781 53.4421 37.7781 53.123C37.7781 52.7767 37.7098 52.4759 37.573 52.2207C37.4409 51.9609 37.2358 51.7627 36.9578 51.626C36.6798 51.4847 36.3266 51.4141 35.8982 51.4141H34.0936V60H32.3777V50.0469ZM38.0584 60L35.7205 55.5293L37.5184 55.5225L39.8904 59.9111V60H38.0584ZM98.8873 60H96.7613L96.775 58.6396H98.8873C99.5025 58.6396 100.018 58.5052 100.432 58.2363C100.851 57.9674 101.166 57.5824 101.376 57.0811C101.59 56.5798 101.697 55.9827 101.697 55.29V54.75C101.697 54.2122 101.635 53.736 101.512 53.3213C101.394 52.9066 101.216 52.5579 100.979 52.2754C100.747 51.9928 100.46 51.7786 100.118 51.6328C99.7805 51.487 99.3909 51.4141 98.9488 51.4141H96.7203V50.0469H98.9488C99.6096 50.0469 100.213 50.1585 100.76 50.3818C101.307 50.6006 101.779 50.9173 102.175 51.332C102.576 51.7467 102.884 52.2435 103.098 52.8223C103.312 53.401 103.42 54.0482 103.42 54.7637V55.29C103.42 56.0055 103.312 56.6527 103.098 57.2314C102.884 57.8102 102.576 58.307 102.175 58.7217C101.774 59.1318 101.296 59.4486 100.74 59.6719C100.188 59.8906 99.5709 60 98.8873 60ZM97.7115 50.0469V60H95.9957V50.0469H97.7115ZM114.479 54.75V55.2969C114.479 56.0488 114.381 56.7233 114.185 57.3203C113.989 57.9173 113.709 58.4255 113.344 58.8447C112.984 59.264 112.551 59.5853 112.045 59.8086C111.539 60.0273 110.979 60.1367 110.363 60.1367C109.753 60.1367 109.195 60.0273 108.689 59.8086C108.187 59.5853 107.752 59.264 107.383 58.8447C107.014 58.4255 106.727 57.9173 106.522 57.3203C106.321 56.7233 106.221 56.0488 106.221 55.2969V54.75C106.221 53.998 106.321 53.3258 106.522 52.7334C106.722 52.1364 107.005 51.6283 107.369 51.209C107.738 50.7852 108.174 50.4639 108.675 50.2451C109.181 50.0218 109.739 49.9102 110.35 49.9102C110.965 49.9102 111.526 50.0218 112.031 50.2451C112.537 50.4639 112.973 50.7852 113.337 51.209C113.702 51.6283 113.982 52.1364 114.178 52.7334C114.378 53.3258 114.479 53.998 114.479 54.75ZM112.763 55.2969V54.7363C112.763 54.1803 112.708 53.6904 112.599 53.2666C112.494 52.8382 112.337 52.4805 112.127 52.1934C111.922 51.9017 111.669 51.6829 111.368 51.5371C111.068 51.3867 110.728 51.3115 110.35 51.3115C109.972 51.3115 109.634 51.3867 109.338 51.5371C109.042 51.6829 108.789 51.9017 108.579 52.1934C108.374 52.4805 108.217 52.8382 108.108 53.2666C107.998 53.6904 107.944 54.1803 107.944 54.7363V55.2969C107.944 55.8529 107.998 56.3451 108.108 56.7734C108.217 57.2018 108.377 57.5641 108.586 57.8604C108.8 58.152 109.056 58.373 109.352 58.5234C109.648 58.6693 109.985 58.7422 110.363 58.7422C110.746 58.7422 111.086 58.6693 111.382 58.5234C111.678 58.373 111.929 58.152 112.134 57.8604C112.339 57.5641 112.494 57.2018 112.599 56.7734C112.708 56.3451 112.763 55.8529 112.763 55.2969ZM122.831 57.4365C122.831 57.2314 122.799 57.0492 122.735 56.8896C122.676 56.7301 122.569 56.5843 122.414 56.4521C122.259 56.32 122.04 56.1924 121.758 56.0693C121.48 55.9417 121.124 55.8118 120.691 55.6797C120.217 55.5339 119.78 55.3721 119.379 55.1943C118.982 55.012 118.636 54.8024 118.34 54.5654C118.043 54.3239 117.813 54.0482 117.649 53.7383C117.485 53.4238 117.403 53.0615 117.403 52.6514C117.403 52.2458 117.487 51.8766 117.656 51.5439C117.829 51.2113 118.073 50.9242 118.387 50.6826C118.707 50.4365 119.082 50.2474 119.515 50.1152C119.948 49.9785 120.427 49.9102 120.951 49.9102C121.689 49.9102 122.325 50.0469 122.858 50.3203C123.396 50.5938 123.808 50.9606 124.096 51.4209C124.387 51.8812 124.533 52.3893 124.533 52.9453H122.831C122.831 52.6172 122.76 52.3278 122.619 52.0771C122.482 51.8219 122.273 51.6214 121.99 51.4756C121.712 51.3298 121.359 51.2568 120.93 51.2568C120.525 51.2568 120.188 51.3184 119.919 51.4414C119.65 51.5645 119.449 51.7308 119.317 51.9404C119.185 52.1501 119.119 52.387 119.119 52.6514C119.119 52.8382 119.162 53.0091 119.249 53.1641C119.335 53.3145 119.468 53.4557 119.645 53.5879C119.823 53.7155 120.046 53.8363 120.315 53.9502C120.584 54.0641 120.901 54.1735 121.265 54.2783C121.817 54.4424 122.298 54.6247 122.708 54.8252C123.118 55.0212 123.46 55.2445 123.733 55.4951C124.007 55.7458 124.212 56.0306 124.348 56.3496C124.485 56.6641 124.554 57.0218 124.554 57.4229C124.554 57.8421 124.469 58.2204 124.301 58.5576C124.132 58.8903 123.89 59.1751 123.576 59.4121C123.266 59.6445 122.892 59.8245 122.455 59.9521C122.022 60.0752 121.539 60.1367 121.006 60.1367C120.527 60.1367 120.055 60.0729 119.591 59.9453C119.13 59.8177 118.711 59.624 118.333 59.3643C117.955 59.0999 117.654 58.7718 117.43 58.3799C117.207 57.9834 117.096 57.5208 117.096 56.9922H118.811C118.811 57.3158 118.866 57.5915 118.975 57.8193C119.089 58.0472 119.247 58.234 119.447 58.3799C119.648 58.5212 119.88 58.626 120.144 58.6943C120.413 58.7627 120.7 58.7969 121.006 58.7969C121.407 58.7969 121.742 58.7399 122.011 58.626C122.284 58.512 122.489 58.3525 122.626 58.1475C122.762 57.9424 122.831 57.7054 122.831 57.4365ZM133.986 58.6396V60H128.702V58.6396H133.986ZM129.187 50.0469V60H127.471V50.0469H129.187ZM133.295 54.2031V55.543H128.702V54.2031H133.295ZM133.952 50.0469V51.4141H128.702V50.0469H133.952ZM149.61 54.75V55.2969C149.61 56.0488 149.512 56.7233 149.316 57.3203C149.12 57.9173 148.84 58.4255 148.475 58.8447C148.115 59.264 147.682 59.5853 147.176 59.8086C146.671 60.0273 146.11 60.1367 145.495 60.1367C144.884 60.1367 144.326 60.0273 143.82 59.8086C143.319 59.5853 142.883 59.264 142.514 58.8447C142.145 58.4255 141.858 57.9173 141.653 57.3203C141.452 56.7233 141.352 56.0488 141.352 55.2969V54.75C141.352 53.998 141.452 53.3258 141.653 52.7334C141.853 52.1364 142.136 51.6283 142.501 51.209C142.87 50.7852 143.305 50.4639 143.806 50.2451C144.312 50.0218 144.87 49.9102 145.481 49.9102C146.096 49.9102 146.657 50.0218 147.163 50.2451C147.669 50.4639 148.104 50.7852 148.468 51.209C148.833 51.6283 149.113 52.1364 149.309 52.7334C149.51 53.3258 149.61 53.998 149.61 54.75ZM147.894 55.2969V54.7363C147.894 54.1803 147.839 53.6904 147.73 53.2666C147.625 52.8382 147.468 52.4805 147.258 52.1934C147.053 51.9017 146.8 51.6829 146.5 51.5371C146.199 51.3867 145.859 51.3115 145.481 51.3115C145.103 51.3115 144.766 51.3867 144.469 51.5371C144.173 51.6829 143.92 51.9017 143.711 52.1934C143.505 52.4805 143.348 52.8382 143.239 53.2666C143.129 53.6904 143.075 54.1803 143.075 54.7363V55.2969C143.075 55.8529 143.129 56.3451 143.239 56.7734C143.348 57.2018 143.508 57.5641 143.717 57.8604C143.932 58.152 144.187 58.373 144.483 58.5234C144.779 58.6693 145.116 58.7422 145.495 58.7422C145.878 58.7422 146.217 58.6693 146.513 58.5234C146.809 58.373 147.06 58.152 147.265 57.8604C147.47 57.5641 147.625 57.2018 147.73 56.7734C147.839 56.3451 147.894 55.8529 147.894 55.2969ZM154.442 50.0469V60H152.726V50.0469H154.442ZM158.502 54.4014V55.7617H154.004V54.4014H158.502ZM159.07 50.0469V51.4141H154.004V50.0469H159.07ZM174.619 50.0469V60H172.903L168.439 52.8701V60H166.723V50.0469H168.439L172.916 57.1904V50.0469H174.619ZM184.577 58.6396V60H179.293V58.6396H184.577ZM179.778 50.0469V60H178.062V50.0469H179.778ZM183.887 54.2031V55.543H179.293V54.2031H183.887ZM184.543 50.0469V51.4141H179.293V50.0469H184.543ZM189.874 57.7646L191.856 50.0469H192.895L192.779 52.0361L190.66 60H189.58L189.874 57.7646ZM188.39 50.0469L189.997 57.7031L190.14 60H188.992L186.688 50.0469H188.39ZM195.144 57.6826L196.73 50.0469H198.439L196.135 60H194.987L195.144 57.6826ZM193.298 50.0469L195.26 57.7852L195.547 60H194.467L192.382 52.0361L192.273 50.0469H193.298ZM206.347 57.4365C206.347 57.2314 206.315 57.0492 206.251 56.8896C206.192 56.7301 206.085 56.5843 205.93 56.4521C205.775 56.32 205.556 56.1924 205.274 56.0693C204.996 55.9417 204.64 55.8118 204.207 55.6797C203.733 55.5339 203.296 55.3721 202.895 55.1943C202.498 55.012 202.152 54.8024 201.856 54.5654C201.559 54.3239 201.329 54.0482 201.165 53.7383C201.001 53.4238 200.919 53.0615 200.919 52.6514C200.919 52.2458 201.003 51.8766 201.172 51.5439C201.345 51.2113 201.589 50.9242 201.904 50.6826C202.223 50.4365 202.599 50.2474 203.031 50.1152C203.464 49.9785 203.943 49.9102 204.467 49.9102C205.205 49.9102 205.841 50.0469 206.374 50.3203C206.912 50.5938 207.324 50.9606 207.612 51.4209C207.903 51.8812 208.049 52.3893 208.049 52.9453H206.347C206.347 52.6172 206.276 52.3278 206.135 52.0771C205.998 51.8219 205.789 51.6214 205.506 51.4756C205.228 51.3298 204.875 51.2568 204.446 51.2568C204.041 51.2568 203.704 51.3184 203.435 51.4414C203.166 51.5645 202.965 51.7308 202.833 51.9404C202.701 52.1501 202.635 52.387 202.635 52.6514C202.635 52.8382 202.678 53.0091 202.765 53.1641C202.851 53.3145 202.984 53.4557 203.161 53.5879C203.339 53.7155 203.562 53.8363 203.831 53.9502C204.1 54.0641 204.417 54.1735 204.781 54.2783C205.333 54.4424 205.814 54.6247 206.224 54.8252C206.634 55.0212 206.976 55.2445 207.249 55.4951C207.523 55.7458 207.728 56.0306 207.864 56.3496C208.001 56.6641 208.07 57.0218 208.07 57.4229C208.07 57.8421 207.985 58.2204 207.817 58.5576C207.648 58.8903 207.406 59.1751 207.092 59.4121C206.782 59.6445 206.408 59.8245 205.971 59.9521C205.538 60.0752 205.055 60.1367 204.522 60.1367C204.043 60.1367 203.571 60.0729 203.107 59.9453C202.646 59.8177 202.227 59.624 201.849 59.3643C201.471 59.0999 201.17 58.7718 200.946 58.3799C200.723 57.9834 200.612 57.5208 200.612 56.9922H202.327C202.327 57.3158 202.382 57.5915 202.491 57.8193C202.605 58.0472 202.763 58.234 202.963 58.3799C203.164 58.5212 203.396 58.626 203.66 58.6943C203.929 58.7627 204.216 58.7969 204.522 58.7969C204.923 58.7969 205.258 58.7399 205.527 58.626C205.8 58.512 206.005 58.3525 206.142 58.1475C206.279 57.9424 206.347 57.7054 206.347 57.4365Z" fill="black"/>
<path d="M50.374 60H48.248L48.2617 58.6396H50.374C50.9893 58.6396 51.5042 58.5052 51.9189 58.2363C52.3382 57.9674 52.6527 57.5824 52.8623 57.0811C53.0765 56.5798 53.1836 55.9827 53.1836 55.29V54.75C53.1836 54.2122 53.1221 53.736 52.999 53.3213C52.8805 52.9066 52.7028 52.5579 52.4658 52.2754C52.2334 51.9928 51.9463 51.7786 51.6045 51.6328C51.2673 51.487 50.8776 51.4141 50.4355 51.4141H48.207V50.0469H50.4355C51.0964 50.0469 51.7002 50.1585 52.2471 50.3818C52.7939 50.6006 53.2656 50.9173 53.6621 51.332C54.0632 51.7467 54.3708 52.2435 54.585 52.8223C54.7992 53.401 54.9062 54.0482 54.9062 54.7637V55.29C54.9062 56.0055 54.7992 56.6527 54.585 57.2314C54.3708 57.8102 54.0632 58.307 53.6621 58.7217C53.2611 59.1318 52.7826 59.4486 52.2266 59.6719C51.6751 59.8906 51.0576 60 50.374 60ZM49.1982 50.0469V60H47.4824V50.0469H49.1982ZM61.7545 51.373L58.7809 60H56.983L60.7291 50.0469H61.8775L61.7545 51.373ZM64.2428 60L61.2623 51.373L61.1324 50.0469H62.2877L66.0475 60H64.2428ZM64.0992 56.3086V57.6689H58.6852V56.3086H64.0992ZM70.3938 50.0469V60H68.6779V50.0469H70.3938ZM80.1609 58.6396V60H75.1639V58.6396H80.1609ZM75.6424 50.0469V60H73.9266V50.0469H75.6424ZM82.101 50.0469L84.4115 54.7979L86.7221 50.0469H88.6225L85.2729 56.3359V60H83.5434V56.3359L80.1937 50.0469H82.101Z" fill="#DB1313"/>
</svg>
