<svg width="27" height="24" viewBox="0 0 27 24" fill="none" xmlns="http://www.w3.org/2000/svg">
<path d="M0 2C0 0.89543 0.895431 0 2 0H25C26.1046 0 27 0.895431 27 2V3C27 4.10457 26.1046 5 25 5H2C0.895431 5 0 4.10457 0 3V2Z" fill="white"/>
<path d="M0 21C0 19.8954 0.895431 19 2 19H25C26.1046 19 27 19.8954 27 21V22C27 23.1046 26.1046 24 25 24H2C0.895431 24 0 23.1046 0 22V21Z" fill="white"/>
<path d="M0 11C0 9.89543 0.895431 9 2 9H25C26.1046 9 27 9.89543 27 11V12C27 13.1046 26.1046 14 25 14H2C0.895431 14 0 13.1046 0 12V11Z" fill="white"/>
</svg>
