<svg width="5" height="24" viewBox="0 0 5 24" fill="none" xmlns="http://www.w3.org/2000/svg">
<path d="M5 2.5C5 3.88071 3.88071 5 2.5 5C1.11929 5 0 3.88071 0 2.5C0 1.11929 1.11929 0 2.5 0C3.88071 0 5 1.11929 5 2.5Z" fill="white"/>
<path d="M5 21.5C5 22.8807 3.88071 24 2.5 24C1.11929 24 0 22.8807 0 21.5C0 20.1193 1.11929 19 2.5 19C3.88071 19 5 20.1193 5 21.5Z" fill="white"/>
<path d="M5 12.5C5 13.8807 3.88071 15 2.5 15C1.11929 15 0 13.8807 0 12.5C0 11.1193 1.11929 10 2.5 10C3.88071 10 5 11.1193 5 12.5Z" fill="white"/>
</svg>
